<svg xmlns="http://www.w3.org/2000/svg" xmlns:xlink="http://www.w3.org/1999/xlink" viewBox="0 0 1638.05 1638.05"><defs><style>.cls-1{fill:url(#Dégradé_sans_nom_2);}.cls-2{fill:#fff;}</style><linearGradient id="Dégradé_sans_nom_2" x1="-2004.3" y1="2638.33" x2="-366.32" y2="2638.33" gradientTransform="translate(-530.32 -1739.3) rotate(-52)" gradientUnits="userSpaceOnUse"><stop offset="0" stop-color="#964c98"/><stop offset="0.54" stop-color="#e8395d"/><stop offset="0.99" stop-color="#f18745"/></linearGradient></defs><g id="Calque_2" data-name="Calque 2"><g id="Logo_9TQ" data-name="Logo 9TQ"><circle class="cls-1" cx="819.03" cy="819.03" r="818.99"/><path class="cls-2" d="M1187.79,781.62h-61.64q-31.73,0-52-18.63t-20.24-55V484.81h59.33V569h70.38v43.69h-70.38v84.74q0,17,6.44,24.15t19.32,7.13l48.76.22Z"/><path class="cls-2" d="M1234.24,1136q16.32-28.52,16.33-65.77,0-36.79-16.33-65.09a113.2,113.2,0,0,0-45.53-43.92q-29.22-15.63-67.39-15.64-38.62,0-68.07,15.64a112.79,112.79,0,0,0-45.76,43.92q-16.34,28.29-16.33,65.09,0,37.26,16.33,65.77a112.25,112.25,0,0,0,45.76,44.15q29.43,15.64,68.07,15.64,32.39,0,58.3-11.29l33.71,34.33,37.24-37.24s-14.39-15.11-28-28.93A115.13,115.13,0,0,0,1234.24,1136Zm-182.83-64.85q0-33.12,19.32-53.81t50.59-20.7q30.36,0,49.68,20.7t19.32,53.81c0,20.52-5.64,37.41-16.76,50.78a67,67,0,0,0-9-1q-27.27-1.14-52.79,24.19c-16.5-1.83-30.2-8.5-41-20.12Q1051.41,1104.25,1051.41,1071.14Z"/><path class="cls-2" d="M632.17,387C467.23,387,333.52,520.66,333.52,685.6c0,157.62,122.13,286.63,276.9,297.78L474,1169.35l111.47,81.75s280.92-380,287.42-388.81A297.18,297.18,0,0,0,930.82,685.6C930.82,520.66,797.11,387,632.17,387Zm0,443.23A144.58,144.58,0,1,1,776.76,685.6,144.58,144.58,0,0,1,632.17,830.18Z"/><rect class="cls-2" x="976.51" y="841.89" width="288.71" height="34.14"/></g></g></svg>